<?xml version="1.0" standalone="no"?>
<!DOCTYPE svg PUBLIC "-//W3C//DTD SVG 20010904//EN"
 "http://www.w3.org/TR/2001/REC-SVG-20010904/DTD/svg10.dtd">
<svg version="1.0" xmlns="http://www.w3.org/2000/svg"
 width="257.000000pt" height="257.000000pt" viewBox="0 0 257.000000 257.000000"
 preserveAspectRatio="xMidYMid meet">

<g transform="translate(0.000000,257.000000) scale(0.100000,-0.100000)"
fill="#000000" stroke="none">
<path d="M1090 2545 c-392 -58 -724 -267 -937 -590 -58 -87 -126 -232 -119
-251 6 -16 60 -18 229 -7 l107 6 34 61 c19 34 59 90 89 126 298 360 823 506
1327 369 90 -24 274 -111 361 -170 120 -81 244 -219 335 -375 6 -10 13 -13 17
-8 8 14 -35 116 -88 203 -185 306 -493 532 -835 612 -154 37 -370 47 -520 24z"/>
<path d="M1265 2180 c-235 -33 -464 -152 -583 -303 -55 -70 -92 -136 -92 -167
0 -19 6 -20 158 -20 l157 0 48 55 c97 111 260 197 438 231 118 23 363 15 474
-15 137 -37 256 -101 342 -187 42 -41 79 -72 82 -68 13 12 -74 157 -127 212
-110 112 -291 207 -472 247 -87 19 -336 28 -425 15z"/>
<path d="M1396 1889 c-97 -28 -161 -61 -233 -119 -99 -80 -95 -82 125 -75 164
6 194 10 249 31 119 46 297 43 416 -8 26 -12 51 -17 55 -13 13 13 -94 101
-169 138 -139 68 -304 86 -443 46z"/>
<path d="M165 1635 c-5 -2 -27 -6 -47 -10 -42 -7 -87 -48 -105 -97 -8 -22 -12
-124 -12 -310 l-1 -278 160 0 160 0 0 130 0 130 193 -2 192 -3 1 -85 c1 -47 2
-104 3 -127 l1 -43 155 0 c147 0 155 1 155 19 0 11 -5 23 -10 26 -5 3 -10 -1
-10 -9 0 -14 -19 -16 -135 -16 l-136 0 2 133 1 132 -218 0 -218 0 0 -130 -1
-130 -132 -3 -133 -3 0 273 c0 271 4 323 21 312 5 -3 8 0 7 7 -2 7 12 23 31
36 l34 23 391 0 c463 0 437 6 484 -110 8 -21 11 -23 17 -8 9 23 -23 87 -57
111 -15 11 -48 24 -75 28 -46 7 -697 11 -718 4z"/>
<path d="M1125 1627 c-3 -6 -4 -163 -3 -347 l3 -335 158 -3 157 -3 0 345 0
344 -22 6 c-13 3 -83 6 -156 6 -97 0 -134 -3 -137 -13z m295 -342 l0 -325
-135 0 -135 0 0 325 0 325 135 0 135 0 0 -325z"/>
<path d="M1675 1631 c-41 -10 -66 -25 -95 -56 -23 -25 -25 -34 -28 -150 l-4
-124 39 -41 c25 -27 51 -44 78 -50 22 -5 163 -10 313 -10 l272 0 0 -50 0 -50
-350 0 -350 0 0 -80 0 -80 448 0 c406 0 450 2 481 18 64 32 76 60 79 185 3
130 -10 168 -68 202 -32 19 -57 20 -330 25 l-295 5 0 45 0 45 346 3 347 2 6
23 c9 34 7 93 -4 121 l-10 26 -422 -1 c-233 -1 -436 -4 -453 -8z m865 -81 l0
-60 -347 -2 -348 -3 -1 -70 -2 -70 292 0 c283 0 353 -5 341 -25 -3 -6 3 -10
13 -10 32 0 50 -54 51 -152 2 -89 -18 -166 -39 -153 -6 4 -9 3 -8 -2 2 -4 -1
-9 -6 -10 -5 -1 -12 -7 -17 -15 -7 -10 -95 -14 -454 -16 l-445 -3 0 61 0 60
348 2 347 3 3 64 c2 45 -1 67 -10 72 -7 5 -146 9 -309 9 -285 0 -297 1 -323
21 -44 35 -56 70 -56 164 0 102 16 147 62 175 32 19 49 20 471 20 l437 0 0
-60z"/>
<path d="M1590 1306 c0 -2 8 -10 18 -17 15 -13 16 -12 3 4 -13 16 -21 21 -21
13z"/>
<path d="M334 1490 c-27 -5 -29 -9 -35 -60 -3 -30 -4 -61 -1 -67 3 -10 56 -13
219 -13 l214 0 -3 68 -3 67 -181 5 c-100 3 -194 3 -210 0z m371 -70 l0 -45
-192 -3 -193 -2 0 50 0 50 193 -2 192 -3 0 -45z"/>
<path d="M1215 870 c-104 -5 -142 -11 -190 -30 -81 -32 -270 -35 -355 -6 -30
10 -59 22 -64 27 -6 5 -18 9 -28 9 -16 0 -16 -3 -6 -21 18 -28 103 -91 169
-124 160 -82 363 -86 535 -10 75 33 194 123 194 147 0 20 0 20 -255 8z"/>
<path d="M1624 823 c-59 -69 -168 -142 -273 -182 -87 -33 -283 -71 -371 -71
-65 0 -205 22 -295 46 -133 36 -302 139 -355 217 -14 20 -31 37 -37 37 -18 0
-17 -5 20 -79 66 -135 235 -271 424 -342 144 -54 211 -64 408 -64 163 1 189 3
280 28 55 15 150 52 212 82 142 70 260 176 317 284 56 106 62 101 -123 101
l-159 0 -48 -57z"/>
<path d="M2321 871 l-114 -6 -39 -65 c-170 -279 -466 -467 -828 -526 -305 -50
-663 23 -910 183 -141 92 -286 246 -349 371 -24 48 -47 57 -36 15 26 -105 155
-304 277 -426 126 -126 209 -186 363 -262 258 -127 519 -169 796 -130 97 14
228 44 274 64 11 5 59 25 107 46 74 31 216 116 254 150 6 5 41 35 78 65 74 61
164 165 233 271 54 84 126 236 118 250 -6 9 -24 9 -224 0z"/>
</g>
</svg>
